<svg width="19" height="6" viewBox="0 0 19 6" fill="none" xmlns="http://www.w3.org/2000/svg">
    <path fill-rule="evenodd" clip-rule="evenodd"
        d="M17.3378 0.5H18.4955L15.4319 5.75194L15.2872 6H14.6751L14.5431 5.70307L13.0855 2.4235C12.8359 1.86192 12.279 1.5 11.6645 1.5H9.25C8.83579 1.5 8.5 1.83579 8.5 2.25C8.5 2.66421 8.83579 3 9.25 3H11C11.8284 3 12.5 3.67157 12.5 4.5C12.5 5.32843 11.8284 6 11 6H8.15584C6.68906 6 5.5 4.81094 5.5 3.34416V2.44335C4.93445 3.56634 4.45053 4.72954 4.05239 5.92398L4.02705 6H2.97295L2.94761 5.92398C2.54947 4.72954 2.06555 3.56634 1.5 2.44335V6H0.5V0.5H1H1.58117C2.32942 1.77892 2.97112 3.1167 3.5 4.49977C4.02888 3.1167 4.67058 1.77892 5.41883 0.5H6H6.5V3.34416C6.5 4.25865 7.24135 5 8.15584 5H11C11.2761 5 11.5 4.77614 11.5 4.5C11.5 4.22386 11.2761 4 11 4H9.25C8.2835 4 7.5 3.2165 7.5 2.25C7.5 1.2835 8.2835 0.5 9.25 0.5H11.6645C12.6742 0.5 13.5892 1.09465 13.9993 2.01736L15.0602 4.40442L17.3378 0.5Z"
        fill="white" />
</svg>